<svg enable-background="new 0 0 110 110" height="512" viewBox="0 0 110 110" width="512" xmlns="http://www.w3.org/2000/svg"><path d="m56.681366 58.1993561-7.797165 2.6172142-7.1941108-2.6172142v-20.3951073h14.9912758z" fill="#e69871"/><path d="m61.2695389 94.5942383v-39.487442l-2.4080582-1.3187867-9.9207344 6.7828484-9.4307518-6.7828484-.4141006.2267724v40.5794563z" fill="#d5d6db"/><path d="m74.1091385 63.1035156c-1.152504-1.2682495-2.5086746-2.3374596-4.0130005-3.1613731l-9.6553459-5.2905235-1.5783997-.865593-.9211159.1805496c-.6340981 5.0776291-3.0733948 22.365593-8.7481384 39.1814651-5.6746902-16.8112335-8.1186218-34.0946159-8.7527199-39.1768303l-.9303894-.1851845-1.5552139.8516846-9.6831112 5.3044319c-1.504324.8239136-2.8605003 1.8931236-4.0084209 3.1613731-2.5781689 2.8373184-4.0037823 6.5310059-4.0037823 10.3635178v18.2142639c0 3.0315018 2.4575138 5.4890137 5.4890156 5.4890137h46.8753929c3.0315018 0 5.4890137-2.4575119 5.4890137-5.4890137v-18.2142638c0-3.8325119-1.4256134-7.5261994-4.0037842-10.3635178z" fill="#d5d6db"/><g fill="#f0a67a"><ellipse cx="60.712" cy="35.243" rx="4.46" ry="1.42" transform="matrix(.156 -.988 .988 .156 16.429 89.714)"/><ellipse cx="37.929" cy="35.24" rx="1.42" ry="3.877" transform="matrix(.998 -.067 .067 .998 -2.287 2.635)"/><path d="m60.1815796 37.4412994-.441803-13.0409374-1.5462914-4.2047806-9.0366287-2.4375553-9.0366287 2.4375553-4.174633 7.0123653 2.1865425 10.2333527s-.5154228 3.1688194.6627007 5.4844971 2.2826157 3.3731232 3.828907 4.9163246c1.5462952 1.5432053 3.5675697 2.0217133 6.5331116 2.1176224 2.9655457-.0959091 4.9868202-.5744171 6.5331116-2.1176224 1.5462952-1.5432014 2.6507835-2.600647 3.8289108-4.9163246 1.1781234-2.3156776.6627006-5.4844971.6627006-5.4844971z"/></g><path d="m47.758358 64.7602005v19.1104279h2.2518387v-19.1104279c.2936478-4.6714973 1.926548-5.9910736 1.926548-5.9910736l-.947567-1.0216141-2.0127335 2.403492-1.6926193-2.403492-1.4521294 1.0216141c.0000001 0 1.6330147 1.3195763 1.9266625 5.9910736z" fill="#bdbec1"/><path d="m62.8359337 18.9629059c-1.3688469-1.486248-.9886513-3.754715-3.7263451-5.4755821-2.7374611-1.7208681-4.8666992-1.2515717-5.4751549 0 0 0-3.498085-3.1288719-7.5283051-2.5813303-4.0304565.5475407-3.4980888 1.9555445-6.1596947 3.5982246-2.6616096 1.6426802-3.9542503 3.5982256-4.5625877 6.1013098-.6084557 2.5031433.4562798 1.486248 0 3.4417934-.4562836 1.9555435-.5349426 3.9067478-.1932526 5.9448776.3363037 2.0059719 2.4157372 7.0930862 2.4157372 7.0930862l1.0333824-.0335617s-.5379219-1.6201477-.7107506-4.3917389c.2304764-.4528999.7408142-6.618515.735096-8.8497562.625843-1.1385765 1.5038643-1.0280571 3.0314178-1.1709099 2.5094376-.2346783 5.2471313-2.7377625 5.4751549-2.6595764.2282562.0782452 4.1825104 2.3467121 6.3117485.9387074 0 0 3.5538483-.6998425 4.562706 4.1457672 1.4912415 7.1625175 2.0990105 12.6908226 1.8824234 12.9621506l1.0716248.0669289c.58395-1.4867668 1.4110909-3.673996 1.9127693-5.3632774.8364792-2.8160057.988533-3.9111462 1.064621-7.3529396.076088-3.4417344.2281418-4.9279824-1.1405906-6.4141732z" fill="#3a556a"/><path d="m81.7360306 63.8148651c-8.7203598-6.3828926-20.9601326-4.4886665-27.3430252 4.2316971-6.3778114 8.7134247-4.4834099 20.9531326 4.2369537 27.3360214 8.7133789 6.3777847 20.9529495 4.4834747 27.3307648-4.22995 6.3828964-8.7203597 4.4886932-20.9599838-4.2246933-27.3377685zm-24.1268807 6.585762c4.6539345-6.3582458 13.2205467-8.141407 19.9628029-4.4941025l-18.2120971 24.8815232c-5.5147973-5.3242722-6.4046708-14.0291367-1.7507058-20.3874207zm5.1717873 22.8931961 18.2137146-24.8837432c5.5204773 5.3236618 6.4127655 14.0329056 1.7569962 20.3936615-4.6558075 6.3608017-13.2273255 8.1429901-19.9707108 4.4900817z" fill="#e56353"/><g fill="#ebf0f3"><path d="m56.681366 49.9597435-6.1717339 8.4921989 4.9063873 5.2896042 3.4454499-9.9535255z"/><path d="m41.6390343 49.9597435 6.1717338 8.4921989-4.9063873 5.2896042-3.4454498-9.9535255z"/></g></svg>